<?xml version="1.0" standalone="no"?>
<!DOCTYPE svg PUBLIC "-//W3C//DTD SVG 20010904//EN"
 "http://www.w3.org/TR/2001/REC-SVG-20010904/DTD/svg10.dtd">
<svg version="1.0" xmlns="http://www.w3.org/2000/svg"
 width="188.000000pt" height="75.000000pt" viewBox="0 0 188.000000 75.000000"
 preserveAspectRatio="xMidYMid meet">

<g transform="translate(0.000000,75.000000) scale(0.100000,-0.100000)"
fill="#000000" stroke="none">
<path d="M690 670 c-11 -11 -20 -27 -20 -35 0 -8 -4 -15 -10 -15 -5 0 -10 -9
-10 -20 0 -11 5 -20 10 -20 6 0 10 -25 10 -55 0 -48 2 -55 20 -55 18 0 20 7
20 55 0 42 3 55 15 55 8 0 15 9 15 20 0 11 -7 20 -15 20 -22 0 -18 21 5 27 11
3 20 14 20 24 0 25 -34 25 -60 -1z"/>
<path d="M1300 580 c0 -103 1 -110 20 -110 19 0 20 7 20 110 0 103 -1 110 -20
110 -19 0 -20 -7 -20 -110z"/>
<path d="M1383 674 c-8 -21 13 -42 28 -27 13 13 5 43 -11 43 -6 0 -13 -7 -17
-16z"/>
<path d="M1200 640 c0 -11 -4 -20 -10 -20 -5 0 -10 -9 -10 -20 0 -11 4 -20 9
-20 4 0 11 -21 14 -46 5 -47 18 -64 50 -64 10 0 17 8 17 20 0 11 -4 20 -10 20
-5 0 -10 16 -10 35 0 19 5 35 10 35 6 0 10 9 10 20 0 11 -4 20 -10 20 -5 0
-10 9 -10 20 0 15 -7 20 -25 20 -18 0 -25 -5 -25 -20z"/>
<path d="M346 629 c-20 -16 -24 -24 -17 -38 8 -14 -8 -34 -92 -110 -56 -50
-108 -97 -115 -102 -18 -15 -10 -32 21 -47 25 -12 177 -170 177 -183 0 -4 -38
-12 -85 -19 -47 -7 -85 -14 -85 -16 0 -2 88 -4 196 -4 127 0 193 3 189 10 -3
5 -25 10 -48 10 -101 0 -111 6 -212 115 -52 56 -96 111 -97 121 -2 13 24 45
79 97 45 42 86 77 92 77 6 0 17 -13 25 -29 12 -23 13 -41 6 -87 -5 -32 -8 -59
-6 -62 2 -2 19 10 37 26 28 25 36 28 60 18 38 -14 69 14 69 60 0 26 9 40 42
68 l42 36 -73 0 c-71 0 -75 1 -121 40 -26 22 -50 40 -53 40 -2 0 -16 -9 -31
-21z"/>
<path d="M770 545 c0 -68 2 -75 20 -75 18 0 20 7 20 55 0 48 2 55 20 55 13 0
20 7 20 20 0 23 -10 26 -28 8 -9 -9 -12 -9 -12 0 0 7 -9 12 -20 12 -18 0 -20
-7 -20 -75z"/>
<path d="M900 607 c-20 -10 -26 -21 -28 -58 -3 -51 7 -65 54 -75 68 -13 109
83 55 127 -27 22 -46 24 -81 6z m65 -46 c9 -29 -5 -52 -29 -49 -37 5 -34 68 3
68 11 0 22 -8 26 -19z"/>
<path d="M1030 545 c0 -68 2 -75 19 -75 17 0 20 8 23 53 3 45 6 52 26 55 21 3
22 0 22 -52 0 -49 2 -56 20 -56 18 0 20 7 20 65 0 55 -3 66 -21 76 -16 8 -28
8 -45 0 -15 -6 -24 -7 -24 -1 0 6 -9 10 -20 10 -18 0 -20 -7 -20 -75z"/>
<path d="M1380 545 c0 -68 2 -75 20 -75 18 0 20 7 20 75 0 68 -2 75 -20 75
-18 0 -20 -7 -20 -75z"/>
<path d="M1460 545 c0 -68 2 -75 20 -75 18 0 20 7 20 56 0 52 1 55 23 52 19
-3 22 -10 25 -55 3 -45 6 -53 23 -53 16 0 19 7 19 48 0 87 -23 117 -69 93 -13
-7 -22 -8 -26 -1 -3 5 -13 10 -21 10 -11 0 -14 -16 -14 -75z"/>
<path d="M1660 613 c-25 -9 -40 -35 -40 -69 0 -55 49 -85 103 -65 36 14 26 31
-18 31 -19 0 -37 5 -40 10 -4 6 12 10 39 10 44 0 46 1 46 29 0 44 -44 71 -90
54z m50 -43 c0 -5 -12 -10 -26 -10 -14 0 -23 4 -19 10 3 6 15 10 26 10 10 0
19 -4 19 -10z"/>
<path d="M650 265 l0 -165 560 0 560 0 0 165 0 165 -560 0 -560 0 0 -165z
m350 30 c0 -87 -3 -105 -15 -105 -12 0 -15 18 -15 105 0 87 3 105 15 105 12 0
15 -18 15 -105z m290 75 c0 -5 -4 -10 -10 -10 -5 0 -10 5 -10 10 0 6 5 10 10
10 6 0 10 -4 10 -10z m-80 -20 c0 -12 7 -20 18 -21 16 -1 16 -2 0 -6 -26 -7
-26 -119 0 -126 13 -4 12 -5 -5 -6 -29 -1 -43 26 -43 83 0 30 -4 46 -12 47
-10 0 -10 2 0 6 6 2 12 13 12 24 0 10 7 19 15 19 8 0 15 -9 15 -20z m-430 -35
c19 -23 3 -31 -21 -10 -14 14 -25 16 -35 10 -25 -16 -19 -29 20 -48 20 -10 39
-24 43 -32 16 -42 -68 -62 -102 -25 -16 18 -16 20 -2 20 10 0 17 -4 17 -9 0
-16 40 -23 55 -11 19 16 11 27 -31 45 -39 16 -52 39 -34 60 16 20 74 19 90 0z
m142 -2 c23 -20 24 -80 1 -105 -20 -22 -70 -23 -95 -1 -23 20 -24 80 -1 105
20 22 70 23 95 1z m138 -42 c0 -63 8 -76 40 -66 17 5 20 15 20 66 0 46 3 59
15 59 12 0 15 -14 15 -70 l0 -70 -50 0 c-59 0 -70 14 -70 89 0 39 4 51 15 51
12 0 15 -13 15 -59z m230 -11 c0 -40 -4 -70 -10 -70 -6 0 -10 30 -10 70 0 40
4 70 10 70 6 0 10 -30 10 -70z m142 53 c23 -20 24 -80 1 -105 -20 -22 -70 -23
-95 -1 -23 20 -24 80 -1 105 20 22 70 23 95 1z m144 6 c16 -13 20 -129 4 -129
-5 0 -10 24 -10 54 0 62 -16 84 -49 66 -17 -9 -21 -20 -21 -65 0 -30 -4 -55
-10 -55 -6 0 -10 29 -10 68 l0 69 41 1 c23 1 48 -3 55 -9z m138 5 c9 -3 16
-12 16 -20 0 -18 -8 -18 -27 1 -20 21 -48 15 -48 -9 0 -13 10 -22 30 -28 68
-18 65 -78 -4 -78 -22 0 -44 6 -51 15 -19 23 -3 31 19 11 13 -12 27 -15 41
-11 30 10 21 36 -18 49 -40 14 -54 33 -41 58 10 18 51 24 83 12z"/>
<path d="M846 298 c-21 -30 -20 -61 2 -81 23 -21 36 -21 56 -1 22 21 20 67 -2
87 -25 23 -38 21 -56 -5z"/>
<path d="M1356 298 c-21 -30 -20 -61 2 -81 23 -21 36 -21 56 -1 22 21 20 67
-2 87 -25 23 -38 21 -56 -5z"/>
</g>
</svg>
